<?xml version="1.0" encoding="UTF-8" standalone="no"?>
<!-- Created with Inkscape (http://www.inkscape.org/) -->

<svg
   version="1.1"
   id="svg2"
   width="188.88933"
   height="164.44533"
   viewBox="0 0 188.88933 164.44533"
   sodipodi:docname="epf_logo_33.ai"
   xmlns:inkscape="http://www.inkscape.org/namespaces/inkscape"
   xmlns:sodipodi="http://sodipodi.sourceforge.net/DTD/sodipodi-0.dtd"
   xmlns="http://www.w3.org/2000/svg"
   xmlns:svg="http://www.w3.org/2000/svg">
  <defs
     id="defs6">
    <clipPath
       clipPathUnits="userSpaceOnUse"
       id="clipPath16">
      <path
         d="M 0,123.334 H 141.667 V 0 H 0 Z"
         id="path14" />
    </clipPath>
    <clipPath
       clipPathUnits="userSpaceOnUse"
       id="clipPath40">
      <path
         d="M 0,123.334 H 141.667 V 0 H 0 Z"
         id="path38" />
    </clipPath>
  </defs>
  <sodipodi:namedview
     id="namedview4"
     pagecolor="#ffffff"
     bordercolor="#000000"
     borderopacity="0.25"
     inkscape:showpageshadow="2"
     inkscape:pageopacity="0.0"
     inkscape:pagecheckerboard="0"
     inkscape:deskcolor="#d1d1d1" />
  <g
     id="g8"
     inkscape:groupmode="layer"
     inkscape:label="epf_logo_33"
     transform="matrix(1.3333333,0,0,-1.3333333,0,164.44533)">
    <g
       id="g10">
      <g
         id="g12"
         clip-path="url(#clipPath16)">
        <g
           id="g18"
           transform="translate(34.6665,88.334)">
          <path
             d="m 0,0 h 9 c 0,0 13,18.417 38.333,13.083 0,0 8.334,4.209 11,4.209 C 58.333,17.292 23.667,33 0,0"
             style="fill:#1820c2;fill-opacity:1;fill-rule:nonzero;stroke:none"
             id="path20" />
        </g>
        <g
           id="g22"
           transform="translate(34.6665,87.834)">
          <path
             d="m 0,0 h 9 c 0,0 13,18.667 38.333,13.333 0,0 8.334,4.084 11,4.084 C 58.333,17.417 23.667,33 0,0 Z"
             style="fill:none;stroke:#1820c2;stroke-width:1;stroke-linecap:butt;stroke-linejoin:miter;stroke-miterlimit:10;stroke-dasharray:none;stroke-opacity:1"
             id="path24" />
        </g>
        <g
           id="g26"
           transform="translate(27.333,70.168)">
          <path
             d="m 0,0 c 0.058,-0.027 -1.704,-10.889 0.5,-20.501 1.947,-8.486 7.899,-16.109 7.833,-16.167 l -22,-20.166 h 21 c 0,0 9.822,12.069 9.834,12.083 -0.766,-0.883 11.784,-6.869 12.543,-7.169 19.519,-7.706 43.954,-1.476 55.626,16.663 3.521,5.472 6.224,12.669 7.664,18.996 0,0 3,13.38 -1.667,22.38 0,0 -5.498,-8.942 -5.5,-8.953 -0.282,-1.849 0.227,-4.287 0.193,-6.106 -0.102,-5.484 -1.854,-13.983 -5.172,-19.674 -6.878,-11.801 -21.224,-19.527 -34.877,-18.918 -7.778,0.345 -16.619,3.786 -22.922,8.354 C 11.521,-30.818 4.941,-17.74 7.318,-3.432 4.848,-2.427 2.423,-1.157 0,0"
             style="fill:#1820c2;fill-opacity:1;fill-rule:nonzero;stroke:none"
             id="path28" />
        </g>
        <g
           id="g30"
           transform="translate(27.333,70.168)">
          <path
             d="m 0,0 c 0.058,-0.027 -1.704,-10.889 0.5,-20.501 1.947,-8.486 7.899,-16.359 7.833,-16.417 l -22,-20.416 h 21 c 0,0 9.822,12.319 9.834,12.333 -0.766,-0.883 11.784,-6.744 12.543,-7.044 19.519,-7.706 43.954,-1.413 55.626,16.726 3.521,5.471 6.224,12.7 7.664,19.027 0,0 3,13.396 -1.667,22.396 0,0 -5.498,-8.935 -5.5,-8.946 -0.282,-1.848 0.227,-4.283 0.193,-6.102 -0.102,-5.484 -1.854,-13.981 -5.172,-19.672 -6.878,-11.801 -21.224,-19.526 -34.877,-18.917 -7.778,0.345 -16.619,3.787 -22.922,8.355 C 11.521,-30.818 4.941,-17.74 7.318,-3.432 4.848,-2.427 2.423,-1.157 0,0 Z"
             style="fill:none;stroke:#1820c2;stroke-width:1;stroke-linecap:butt;stroke-linejoin:miter;stroke-miterlimit:10;stroke-dasharray:none;stroke-opacity:1"
             id="path32" />
        </g>
      </g>
    </g>
    <g
       id="g34">
      <g
         id="g36"
         clip-path="url(#clipPath40)">
        <g
           id="g42"
           transform="translate(30.6665,78.334)">
          <path
             d="M 0,0 H 31 L 39.667,-9.25 66.333,12.542 61,17.938 88.667,27.969 78.667,0.318 73,4.992 39.667,-28.671 l -17,15.548 c 0,0 -10,9.123 -22.667,13.123"
             style="fill:#1820c2;fill-opacity:1;fill-rule:nonzero;stroke:none"
             id="path44" />
        </g>
        <g
           id="g46"
           transform="translate(30.6665,77.834)">
          <path
             d="M 0,0 H 31 L 39.667,-9 66.333,12.917 61,18.375 88.667,28.438 78.667,0.802 73,5.484 39.667,-28.175 l -17,15.3 c 0,0 -10,8.875 -22.667,12.875 z"
             style="fill:none;stroke:#1820c2;stroke-width:1;stroke-linecap:butt;stroke-linejoin:miter;stroke-miterlimit:10;stroke-dasharray:none;stroke-opacity:1"
             id="path48" />
        </g>
      </g>
    </g>
  </g>
</svg>
